<svg height="512pt" viewBox="0 -11 512.00089 512" width="512pt" xmlns="http://www.w3.org/2000/svg"><path d="m449.417969 339.476562c6.800781 0 12.75-4.617187 14.5-11.191406l47.582031-179.191406c1.152344-4.34375.296875-8.988281-2.332031-12.632812-2.628907-3.648438-6.753907-5.929688-11.242188-6.207032l-410.527343-25.359375-11.132813-68.53125c-.765625-4.707031-3.726563-8.773437-7.976563-10.949219l-46.453124-23.765624c-7.375-3.769532-16.414063-.851563-20.1875 6.523437-3.773438 7.375-.851563 16.410156 6.523437 20.183594l39.699219 20.3125 44.792968 275.75-7.53125 47.519531c-28.195312 4.824219-49.726562 29.4375-49.726562 59.003906 0 33.019532 26.847656 60.046875 59.847656 60.046875 30.558594 0 55.828125-23.511719 59.394532-52.511719h204.796874c3.566407 29 28.835938 52.511719 59.394532 52.511719 33 0 59.847656-26.945312 59.847656-59.964843 0-33.015626-26.847656-59.753907-59.847656-59.753907-24.933594 0-46.34375 15.207031-55.328125 37.207031h-212.929688c-6.476562-16-19.414062-28.132812-35.472656-33.804687l5.558594-35.195313zm-30.578125 61.585938c16.457031 0 29.847656 13.402344 29.847656 29.878906 0 16.476563-13.390625 29.882813-29.847656 29.882813-16.453125 0-29.84375-13.40625-29.84375-29.882813 0-16.476562 13.390625-29.878906 29.84375-29.878906zm-293.742188 29.878906c0 16.476563-13.386718 29.882813-29.84375 29.882813-16.457031 0-29.847656-13.40625-29.847656-29.882813 0-16.476562 13.390625-29.878906 29.847656-29.878906 16.457032 0 29.84375 13.402344 29.84375 29.878906zm-32.769531-295.644531 385.476563 23.832031-39.921876 150.347656h-317.269531zm0 0"/><path d="m277.253906 204.453125 19.621094-.125c8.28125-.050781 14.957031-6.734375 14.902344-15.019531-.050782-8.25-6.757813-14.828125-14.996094-14.828125-.035156 0-.066406 0-.101562 0l-55.507813.277343c-9.144531 0-14.902344 7.046876-14.902344 14.867188l-.355469 55.632812c-.050781 8.285157 6.621094 15.222657 14.90625 15.222657h.097657c8.238281 0 14.945312-6.800781 14.996093-15.050781l.125-19.691407 57.355469 57.316407c2.929688 2.929687 6.769531 4.375 10.605469 4.375 3.839844 0 7.679688-1.472657 10.605469-4.402344 5.859375-5.855469 5.859375-15.359375 0-21.214844zm0 0"/></svg>